<svg xmlns="http://www.w3.org/2000/svg" width="1200" height="110" viewBox="0 0 1200 110" role="img" aria-label="the repos are the resume">
<defs>
<radialGradient id="fg" cx="50%" cy="130%" r="80%">
  <stop offset="0%" stop-color="#38BDF8" stop-opacity="0.20"/>
  <stop offset="100%" stop-color="#38BDF8" stop-opacity="0"/>
</radialGradient>
<linearGradient id="fr" x1="0" y1="0" x2="1" y2="0">
  <stop offset="0%" stop-color="#38BDF8" stop-opacity="0"/>
  <stop offset="50%" stop-color="#38BDF8" stop-opacity="0.75"/>
  <stop offset="100%" stop-color="#38BDF8" stop-opacity="0"/>
</linearGradient>
<pattern id="fgrid" width="28" height="28" patternUnits="userSpaceOnUse">
  <path d="M28 0H0V28" fill="none" stroke="#94A3B8" stroke-opacity="0.06" stroke-width="1"/>
</pattern>
</defs>
<rect width="1200" height="110" fill="#0B1120"/>
<rect width="1200" height="110" fill="url(#fgrid)"/>
<rect width="1200" height="110" fill="url(#fg)"/>
<rect x="0" y="0" width="1200" height="2" fill="url(#fr)"/>
<g fill="#38BDF8" transform="translate(364.65,60.00)" ><path d="M315 0H147L282 365L147 730H315L450 363Z" transform="translate(0.00,0.00) scale(0.01400,-0.01400)"/></g><g fill="#7C8DA6" transform="translate(381.45,60.00)" ><path d="M355 0Q287 0 246.0 39.5Q205 79 205 145V468H47V550H205V705H295V550H520V468H295V145Q295 117 311.5 99.5Q328 82 355 82H515V0Z" transform="translate(0.00,0.00) scale(0.01400,-0.01400)"/><path d="M92 0V730H182V445H183Q190 500 228.0 530.0Q266 560 329 560Q412 560 461.0 509.0Q510 458 510 370V0H420V355Q420 417 388.5 450.5Q357 484 303 484Q247 484 214.5 449.0Q182 414 182 350V0Z" transform="translate(8.90,0.00) scale(0.01400,-0.01400)"/><path d="M300 -10Q203 -10 143.5 48.5Q84 107 84 210V340Q84 443 143.5 501.5Q203 560 300 560Q365 560 413.5 534.0Q462 508 489.0 461.0Q516 414 516 350V252H172V200Q172 139 207.0 103.5Q242 68 300 68Q350 68 382.5 87.5Q415 107 422 140H512Q503 71 445.0 30.5Q387 -10 300 -10ZM172 322H428V350Q428 415 394.5 450.5Q361 486 300 486Q239 486 205.5 450.5Q172 415 172 350Z" transform="translate(17.80,0.00) scale(0.01400,-0.01400)"/><path d="M112 0V550H202V445H204Q211 498 249.0 529.0Q287 560 351 560Q437 560 483.5 508.5Q530 457 530 362V315H440V362Q440 482 323 482Q264 482 233.0 448.0Q202 414 202 350V0Z" transform="translate(35.60,0.00) scale(0.01400,-0.01400)"/><path d="M300 -10Q203 -10 143.5 48.5Q84 107 84 210V340Q84 443 143.5 501.5Q203 560 300 560Q365 560 413.5 534.0Q462 508 489.0 461.0Q516 414 516 350V252H172V200Q172 139 207.0 103.5Q242 68 300 68Q350 68 382.5 87.5Q415 107 422 140H512Q503 71 445.0 30.5Q387 -10 300 -10ZM172 322H428V350Q428 415 394.5 450.5Q361 486 300 486Q239 486 205.5 450.5Q172 415 172 350Z" transform="translate(44.50,0.00) scale(0.01400,-0.01400)"/><path d="M92 -180V550H182V445H183Q190 499 230.0 529.5Q270 560 332 560Q415 560 464.0 505.5Q513 451 513 356V195Q513 100 464.0 45.0Q415 -10 332 -10Q270 -10 230.0 21.0Q190 52 183 105H180L182 -20V-180ZM302 68Q359 68 391.0 98.0Q423 128 423 195V355Q423 423 391.0 452.5Q359 482 302 482Q247 482 214.5 447.0Q182 412 182 350V200Q182 138 214.5 103.0Q247 68 302 68Z" transform="translate(53.40,0.00) scale(0.01400,-0.01400)"/><path d="M300 -8Q201 -8 142.5 50.0Q84 108 84 212V338Q84 443 142.0 500.5Q200 558 300 558Q400 558 458.0 500.5Q516 443 516 338V212Q516 108 457.5 50.0Q399 -8 300 -8ZM300 72Q359 72 392.5 105.0Q426 138 426 202V348Q426 412 392.5 445.0Q359 478 300 478Q242 478 208.0 445.0Q174 412 174 348V202Q174 138 208.0 105.0Q242 72 300 72Z" transform="translate(62.30,0.00) scale(0.01400,-0.01400)"/><path d="M278 -8Q186 -8 135.5 33.5Q85 75 85 151H175Q175 113 202.0 91.5Q229 70 278 70H322Q372 70 399.5 92.0Q427 114 427 154Q427 225 362 234L210 256Q154 264 123.0 302.5Q92 341 92 404Q92 476 141.5 517.0Q191 558 278 558H322Q402 558 452.5 518.5Q503 479 507 415H416Q414 444 388.5 463.0Q363 482 322 482H278Q232 482 206.0 461.0Q180 440 180 404Q180 346 233 338L375 318Q515 298 515 154Q515 77 464.5 34.5Q414 -8 322 -8Z" transform="translate(71.20,0.00) scale(0.01400,-0.01400)"/><path d="M252 -10Q167 -10 117.0 37.5Q67 85 67 162Q67 213 90.0 251.0Q113 289 154.0 310.5Q195 332 248 332H418V375Q418 482 301 482Q249 482 217.0 463.0Q185 444 183 410H93Q98 475 153.5 517.5Q209 560 301 560Q401 560 454.5 512.0Q508 464 508 378V0H419V100H417Q409 49 366.0 19.5Q323 -10 252 -10ZM274 66Q340 66 379.0 98.0Q418 130 418 185V262H258Q214 262 186.5 235.5Q159 209 159 165Q159 119 189.5 92.5Q220 66 274 66Z" transform="translate(89.00,0.00) scale(0.01400,-0.01400)"/><path d="M112 0V550H202V445H204Q211 498 249.0 529.0Q287 560 351 560Q437 560 483.5 508.5Q530 457 530 362V315H440V362Q440 482 323 482Q264 482 233.0 448.0Q202 414 202 350V0Z" transform="translate(97.90,0.00) scale(0.01400,-0.01400)"/><path d="M300 -10Q203 -10 143.5 48.5Q84 107 84 210V340Q84 443 143.5 501.5Q203 560 300 560Q365 560 413.5 534.0Q462 508 489.0 461.0Q516 414 516 350V252H172V200Q172 139 207.0 103.5Q242 68 300 68Q350 68 382.5 87.5Q415 107 422 140H512Q503 71 445.0 30.5Q387 -10 300 -10ZM172 322H428V350Q428 415 394.5 450.5Q361 486 300 486Q239 486 205.5 450.5Q172 415 172 350Z" transform="translate(106.80,0.00) scale(0.01400,-0.01400)"/><path d="M355 0Q287 0 246.0 39.5Q205 79 205 145V468H47V550H205V705H295V550H520V468H295V145Q295 117 311.5 99.5Q328 82 355 82H515V0Z" transform="translate(124.60,0.00) scale(0.01400,-0.01400)"/><path d="M92 0V730H182V445H183Q190 500 228.0 530.0Q266 560 329 560Q412 560 461.0 509.0Q510 458 510 370V0H420V355Q420 417 388.5 450.5Q357 484 303 484Q247 484 214.5 449.0Q182 414 182 350V0Z" transform="translate(133.50,0.00) scale(0.01400,-0.01400)"/><path d="M300 -10Q203 -10 143.5 48.5Q84 107 84 210V340Q84 443 143.5 501.5Q203 560 300 560Q365 560 413.5 534.0Q462 508 489.0 461.0Q516 414 516 350V252H172V200Q172 139 207.0 103.5Q242 68 300 68Q350 68 382.5 87.5Q415 107 422 140H512Q503 71 445.0 30.5Q387 -10 300 -10ZM172 322H428V350Q428 415 394.5 450.5Q361 486 300 486Q239 486 205.5 450.5Q172 415 172 350Z" transform="translate(142.40,0.00) scale(0.01400,-0.01400)"/><path d="M112 0V550H202V445H204Q211 498 249.0 529.0Q287 560 351 560Q437 560 483.5 508.5Q530 457 530 362V315H440V362Q440 482 323 482Q264 482 233.0 448.0Q202 414 202 350V0Z" transform="translate(160.20,0.00) scale(0.01400,-0.01400)"/><path d="M300 -10Q203 -10 143.5 48.5Q84 107 84 210V340Q84 443 143.5 501.5Q203 560 300 560Q365 560 413.5 534.0Q462 508 489.0 461.0Q516 414 516 350V252H172V200Q172 139 207.0 103.5Q242 68 300 68Q350 68 382.5 87.5Q415 107 422 140H512Q503 71 445.0 30.5Q387 -10 300 -10ZM172 322H428V350Q428 415 394.5 450.5Q361 486 300 486Q239 486 205.5 450.5Q172 415 172 350ZM242 645 348 785H445L334 645Z" transform="translate(169.10,0.00) scale(0.01400,-0.01400)"/><path d="M278 -8Q186 -8 135.5 33.5Q85 75 85 151H175Q175 113 202.0 91.5Q229 70 278 70H322Q372 70 399.5 92.0Q427 114 427 154Q427 225 362 234L210 256Q154 264 123.0 302.5Q92 341 92 404Q92 476 141.5 517.0Q191 558 278 558H322Q402 558 452.5 518.5Q503 479 507 415H416Q414 444 388.5 463.0Q363 482 322 482H278Q232 482 206.0 461.0Q180 440 180 404Q180 346 233 338L375 318Q515 298 515 154Q515 77 464.5 34.5Q414 -8 322 -8Z" transform="translate(178.00,0.00) scale(0.01400,-0.01400)"/><path d="M299 -10Q204 -10 147.0 46.5Q90 103 90 200V550H180V200Q180 140 212.0 104.5Q244 69 299 69Q355 69 387.5 104.5Q420 140 420 200V550H510V200Q510 103 452.0 46.5Q394 -10 299 -10Z" transform="translate(186.90,0.00) scale(0.01400,-0.01400)"/><path d="M60 0V550H138V477H140Q145 514 169.5 537.0Q194 560 232 560Q268 560 293.0 539.0Q318 518 329 482H330Q337 518 361.5 539.0Q386 560 424 560Q477 560 508.5 520.5Q540 481 540 418V0H456V419Q456 452 440.0 471.5Q424 491 396 491Q369 491 353.0 472.0Q337 453 337 420V0H263V419Q263 452 247.0 471.5Q231 491 204 491Q176 491 160.0 472.0Q144 453 144 420V0Z" transform="translate(195.80,0.00) scale(0.01400,-0.01400)"/><path d="M300 -10Q203 -10 143.5 48.5Q84 107 84 210V340Q84 443 143.5 501.5Q203 560 300 560Q365 560 413.5 534.0Q462 508 489.0 461.0Q516 414 516 350V252H172V200Q172 139 207.0 103.5Q242 68 300 68Q350 68 382.5 87.5Q415 107 422 140H512Q503 71 445.0 30.5Q387 -10 300 -10ZM172 322H428V350Q428 415 394.5 450.5Q361 486 300 486Q239 486 205.5 450.5Q172 415 172 350ZM242 645 348 785H445L334 645Z" transform="translate(204.70,0.00) scale(0.01400,-0.01400)"/><path d="M0 290V370H600V290Z" transform="translate(222.50,0.00) scale(0.01400,-0.01400)"/><path d="M300 -10Q203 -10 143.5 48.5Q84 107 84 210V340Q84 443 143.5 501.5Q203 560 300 560Q365 560 413.5 534.0Q462 508 489.0 461.0Q516 414 516 350V252H172V200Q172 139 207.0 103.5Q242 68 300 68Q350 68 382.5 87.5Q415 107 422 140H512Q503 71 445.0 30.5Q387 -10 300 -10ZM172 322H428V350Q428 415 394.5 450.5Q361 486 300 486Q239 486 205.5 450.5Q172 415 172 350Z" transform="translate(240.30,0.00) scale(0.01400,-0.01400)"/><path d="M241 0 54 550H151L271 180Q282 147 290.0 116.5Q298 86 302 69Q307 86 314.0 116.5Q321 147 331 180L451 550H546L359 0Z" transform="translate(249.20,0.00) scale(0.01400,-0.01400)"/><path d="M300 -10Q203 -10 143.5 48.5Q84 107 84 210V340Q84 443 143.5 501.5Q203 560 300 560Q365 560 413.5 534.0Q462 508 489.0 461.0Q516 414 516 350V252H172V200Q172 139 207.0 103.5Q242 68 300 68Q350 68 382.5 87.5Q415 107 422 140H512Q503 71 445.0 30.5Q387 -10 300 -10ZM172 322H428V350Q428 415 394.5 450.5Q361 486 300 486Q239 486 205.5 450.5Q172 415 172 350Z" transform="translate(258.10,0.00) scale(0.01400,-0.01400)"/><path d="M112 0V550H202V445H204Q211 498 249.0 529.0Q287 560 351 560Q437 560 483.5 508.5Q530 457 530 362V315H440V362Q440 482 323 482Q264 482 233.0 448.0Q202 414 202 350V0Z" transform="translate(267.00,0.00) scale(0.01400,-0.01400)"/><path d="M178 -180 259 34 54 550H151L281 210Q289 190 296.0 168.0Q303 146 306 130Q309 146 316.0 168.0Q323 190 330 210L451 550H546L272 -180Z" transform="translate(275.90,0.00) scale(0.01400,-0.01400)"/><path d="M355 0Q287 0 246.0 39.5Q205 79 205 145V468H47V550H205V705H295V550H520V468H295V145Q295 117 311.5 99.5Q328 82 355 82H515V0Z" transform="translate(284.80,0.00) scale(0.01400,-0.01400)"/><path d="M92 0V730H182V445H183Q190 500 228.0 530.0Q266 560 329 560Q412 560 461.0 509.0Q510 458 510 370V0H420V355Q420 417 388.5 450.5Q357 484 303 484Q247 484 214.5 449.0Q182 414 182 350V0Z" transform="translate(293.70,0.00) scale(0.01400,-0.01400)"/><path d="M85 0V82H280V468H105V550H370V82H555V0ZM315 649Q282 649 263.0 666.0Q244 683 244 712Q244 742 263.0 759.5Q282 777 315 777Q348 777 367.0 759.5Q386 742 386 712Q386 683 367.0 666.0Q348 649 315 649Z" transform="translate(302.60,0.00) scale(0.01400,-0.01400)"/><path d="M92 0V550H182V445H183Q190 500 228.0 530.0Q266 560 329 560Q412 560 461.0 509.0Q510 458 510 370V0H420V354Q420 417 388.5 450.5Q357 484 303 484Q247 484 214.5 449.0Q182 414 182 350V0Z" transform="translate(311.50,0.00) scale(0.01400,-0.01400)"/><path d="M161 -180V-98H316Q363 -98 390.0 -71.5Q417 -45 417 0V50L419 140H416Q408 91 369.0 64.5Q330 38 271 38Q186 38 137.0 92.0Q88 146 88 240V356Q88 450 137.0 505.0Q186 560 271 560Q330 560 369.0 532.0Q408 504 416 455H418V550H507V0Q507 -83 455.5 -131.5Q404 -180 315 -180ZM298 113Q354 113 386.0 148.0Q418 183 418 245V350Q418 412 386.0 447.0Q354 482 298 482Q241 482 209.5 449.0Q178 416 178 360V235Q178 179 209.5 146.0Q241 113 298 113Z" transform="translate(320.40,0.00) scale(0.01400,-0.01400)"/><path d="M300 -10Q203 -10 143.5 48.5Q84 107 84 210V340Q84 443 143.5 501.5Q203 560 300 560Q365 560 413.5 534.0Q462 508 489.0 461.0Q516 414 516 350V252H172V200Q172 139 207.0 103.5Q242 68 300 68Q350 68 382.5 87.5Q415 107 422 140H512Q503 71 445.0 30.5Q387 -10 300 -10ZM172 322H428V350Q428 415 394.5 450.5Q361 486 300 486Q239 486 205.5 450.5Q172 415 172 350Z" transform="translate(338.20,0.00) scale(0.01400,-0.01400)"/><path d="M380 0Q307 0 263.5 42.5Q220 85 220 155V648H30V730H310V155Q310 121 329.0 101.5Q348 82 380 82H550V0Z" transform="translate(347.10,0.00) scale(0.01400,-0.01400)"/><path d="M278 -8Q186 -8 135.5 33.5Q85 75 85 151H175Q175 113 202.0 91.5Q229 70 278 70H322Q372 70 399.5 92.0Q427 114 427 154Q427 225 362 234L210 256Q154 264 123.0 302.5Q92 341 92 404Q92 476 141.5 517.0Q191 558 278 558H322Q402 558 452.5 518.5Q503 479 507 415H416Q414 444 388.5 463.0Q363 482 322 482H278Q232 482 206.0 461.0Q180 440 180 404Q180 346 233 338L375 318Q515 298 515 154Q515 77 464.5 34.5Q414 -8 322 -8Z" transform="translate(356.00,0.00) scale(0.01400,-0.01400)"/><path d="M300 -10Q203 -10 143.5 48.5Q84 107 84 210V340Q84 443 143.5 501.5Q203 560 300 560Q365 560 413.5 534.0Q462 508 489.0 461.0Q516 414 516 350V252H172V200Q172 139 207.0 103.5Q242 68 300 68Q350 68 382.5 87.5Q415 107 422 140H512Q503 71 445.0 30.5Q387 -10 300 -10ZM172 322H428V350Q428 415 394.5 450.5Q361 486 300 486Q239 486 205.5 450.5Q172 415 172 350Z" transform="translate(364.90,0.00) scale(0.01400,-0.01400)"/><path d="M85 0V82H280V468H105V550H370V82H555V0ZM315 649Q282 649 263.0 666.0Q244 683 244 712Q244 742 263.0 759.5Q282 777 315 777Q348 777 367.0 759.5Q386 742 386 712Q386 683 367.0 666.0Q348 649 315 649Z" transform="translate(382.70,0.00) scale(0.01400,-0.01400)"/><path d="M278 -8Q186 -8 135.5 33.5Q85 75 85 151H175Q175 113 202.0 91.5Q229 70 278 70H322Q372 70 399.5 92.0Q427 114 427 154Q427 225 362 234L210 256Q154 264 123.0 302.5Q92 341 92 404Q92 476 141.5 517.0Q191 558 278 558H322Q402 558 452.5 518.5Q503 479 507 415H416Q414 444 388.5 463.0Q363 482 322 482H278Q232 482 206.0 461.0Q180 440 180 404Q180 346 233 338L375 318Q515 298 515 154Q515 77 464.5 34.5Q414 -8 322 -8Z" transform="translate(391.60,0.00) scale(0.01400,-0.01400)"/><path d="M92 0V550H182V445H183Q190 500 228.0 530.0Q266 560 329 560Q412 560 461.0 509.0Q510 458 510 370V0H420V354Q420 417 388.5 450.5Q357 484 303 484Q247 484 214.5 449.0Q182 414 182 350V0Z" transform="translate(409.40,0.00) scale(0.01400,-0.01400)"/><path d="M300 -8Q201 -8 142.5 50.0Q84 108 84 212V338Q84 443 142.0 500.5Q200 558 300 558Q400 558 458.0 500.5Q516 443 516 338V212Q516 108 457.5 50.0Q399 -8 300 -8ZM300 72Q359 72 392.5 105.0Q426 138 426 202V348Q426 412 392.5 445.0Q359 478 300 478Q242 478 208.0 445.0Q174 412 174 348V202Q174 138 208.0 105.0Q242 72 300 72Z" transform="translate(418.30,0.00) scale(0.01400,-0.01400)"/><path d="M85 0V82H280V468H105V550H370V82H555V0ZM315 649Q282 649 263.0 666.0Q244 683 244 712Q244 742 263.0 759.5Q282 777 315 777Q348 777 367.0 759.5Q386 742 386 712Q386 683 367.0 666.0Q348 649 315 649Z" transform="translate(427.20,0.00) scale(0.01400,-0.01400)"/><path d="M278 -8Q186 -8 135.5 33.5Q85 75 85 151H175Q175 113 202.0 91.5Q229 70 278 70H322Q372 70 399.5 92.0Q427 114 427 154Q427 225 362 234L210 256Q154 264 123.0 302.5Q92 341 92 404Q92 476 141.5 517.0Q191 558 278 558H322Q402 558 452.5 518.5Q503 479 507 415H416Q414 444 388.5 463.0Q363 482 322 482H278Q232 482 206.0 461.0Q180 440 180 404Q180 346 233 338L375 318Q515 298 515 154Q515 77 464.5 34.5Q414 -8 322 -8Z" transform="translate(436.10,0.00) scale(0.01400,-0.01400)"/><path d="M300 -10Q203 -10 143.5 48.5Q84 107 84 210V340Q84 443 143.5 501.5Q203 560 300 560Q365 560 413.5 534.0Q462 508 489.0 461.0Q516 414 516 350V252H172V200Q172 139 207.0 103.5Q242 68 300 68Q350 68 382.5 87.5Q415 107 422 140H512Q503 71 445.0 30.5Q387 -10 300 -10ZM172 322H428V350Q428 415 394.5 450.5Q361 486 300 486Q239 486 205.5 450.5Q172 415 172 350Z" transform="translate(445.00,0.00) scale(0.01400,-0.01400)"/></g>
</svg>